<svg xmlns="http://www.w3.org/2000/svg" width="32" height="32" fill="none" viewBox="0 0 32 32">
    <g clip-path="url(#a)">
        <path fill="#043F93" d="M23.736 1.778v28.444H1.758V1.778h21.978zm0-1.778H1.758C.791 0 0 .8 0 1.778v28.444C0 31.2.791 32 1.758 32h21.978c.967 0 1.758-.8 1.758-1.778V1.778C25.494.8 24.704 0 23.736 0z"/>
        <path fill="#00D3C3" fill-rule="evenodd" d="M15.383 7.28a1.02 1.02 0 0 1 .01 1.43l-7.836 8.045 7.836 8.047a1.02 1.02 0 0 1-.01 1.43.992.992 0 0 1-1.415-.012L4.75 16.755l9.218-9.465a.992.992 0 0 1 1.415-.01zM21.54 7.28a.992.992 0 0 1 1.415.01l9.218 9.465-9.218 9.465a.992.992 0 0 1-1.414.011 1.02 1.02 0 0 1-.011-1.43l7.836-8.046L21.53 8.71a1.02 1.02 0 0 1 .01-1.43z" clip-rule="evenodd"/>
    </g>
    <defs>
        <clipPath id="a">
            <path fill="#fff" d="M0 0h32v32H0z"/>
        </clipPath>
    </defs>
</svg>
