<svg xmlns="http://www.w3.org/2000/svg" width="34" height="29" fill="none" viewBox="0 0 34 29">
    <path fill="#00D3C3" fill-rule="evenodd" d="M16.466 26.046l7.844-8.404L11.418 3.829c-2.166-2.32-5.678-2.32-7.844 0-2.166 2.32-2.166 6.083 0 8.404l12.892 13.813zm10.601-8.404l-14.27-15.29c-2.928-3.136-7.674-3.136-10.602 0-2.927 3.136-2.927 8.222 0 11.358L16.466 29l10.601-11.358z" clip-rule="evenodd"/>
    <path fill="#fff" stroke="#043F93" stroke-width="2" d="M22.3 3.527c2.323-2.488 6.087-2.488 8.41 0 2.322 2.487 2.322 6.521 0 9.009L16.72 27.523l-8.409-9.01L22.301 3.528z"/>
    <mask id="a" fill="#fff">
        <path fill-rule="evenodd" d="M16.721 26.046l13.3-14.249c1.94-2.08 1.94-5.452 0-7.532-1.942-2.08-5.09-2.08-7.031 0L9.69 18.514l7.031 7.532zM31.4 2.788c-2.703-2.896-7.085-2.896-9.788 0L6.934 18.514 16.72 29 31.4 13.274c2.703-2.895 2.703-7.59 0-10.486z" clip-rule="evenodd"/>
    </mask>
    <path fill="#F2F2F2" fill-rule="evenodd" d="M16.721 26.046l13.3-14.249c1.94-2.08 1.94-5.452 0-7.532-1.942-2.08-5.09-2.08-7.031 0L9.69 18.514l7.031 7.532zM31.4 2.788c-2.703-2.896-7.085-2.896-9.788 0L6.934 18.514 16.72 29 31.4 13.274c2.703-2.895 2.703-7.59 0-10.486z" clip-rule="evenodd"/>
    <path fill="#043F93" d="M16.721 26.046l-1.378 1.477L16.72 29l1.379-1.477-1.379-1.477zm-7.03-7.532l-1.379-1.477-1.378 1.477 1.378 1.477 1.379-1.477zm-2.757 0l-1.379-1.477-1.378 1.477 1.378 1.477 1.379-1.477zM16.72 29l-1.378 1.477 1.378 1.477 1.379-1.477L16.72 29zm11.92-18.68L15.344 24.57l2.757 2.954 13.299-14.249-2.757-2.954zm0-4.578c1.18 1.264 1.18 3.314 0 4.578l2.758 2.954c2.703-2.895 2.703-7.59 0-10.486l-2.757 2.954zm-4.272 0c1.18-1.264 3.093-1.264 4.273 0l2.757-2.954c-2.703-2.896-7.085-2.896-9.788 0l2.758 2.954zm-13.3 14.249l13.3-14.249-2.758-2.954L8.312 17.037l2.758 2.954zm7.03 4.578l-7.03-7.532-2.757 2.954 7.03 7.532 2.758-2.954zM22.99 4.265c1.941-2.08 5.089-2.08 7.03 0l2.758-2.954c-3.465-3.711-9.081-3.711-12.545 0l2.757 2.954zm7.03 0c1.942 2.08 1.942 5.452 0 7.532l2.758 2.954c3.464-3.711 3.464-9.728 0-13.44L30.02 4.265zM8.312 19.991L22.99 4.265l-2.757-2.954L5.555 17.037l2.757 2.954zm9.788 7.532L8.312 17.037 5.555 19.99l9.788 10.486 2.757-2.954zm11.92-15.726L15.343 27.523l2.757 2.954L32.778 14.75l-2.758-2.954z" mask="url(#a)"/>
</svg>
